<svg width="290" height="273" viewBox="0 0 290 273" fill="none" xmlns="http://www.w3.org/2000/svg">
<circle cx="168.255" cy="121.745" r="121.745" fill="#C4E9F4"/>
<path d="M185.82 115.865C188.691 125.901 189.663 136.404 188.684 146.812C187.661 157.2 184.972 167.345 180.724 176.841C176.503 186.282 171.126 195.138 164.722 203.197C161.555 207.231 158.169 211.08 154.581 214.726C150.924 218.391 147.03 221.799 142.924 224.929C134.797 231.238 125.944 236.508 116.564 240.623C107.093 244.837 97.0469 247.549 86.7737 248.666C81.5427 249.227 76.2685 249.227 71.0375 248.666C65.7191 248.052 60.5179 246.643 55.6011 244.483C45.8076 240.146 37.6973 232.618 32.5381 223.075L32.2383 222.497C31.9562 221.967 31.87 221.351 31.9956 220.761C32.1212 220.171 32.4501 219.647 32.9224 219.284C33.3948 218.922 33.979 218.744 34.5687 218.785C35.1584 218.825 35.7142 219.08 36.1349 219.504C38.3606 220.699 40.6705 221.722 43.0455 222.565C44.8278 223.287 46.7759 223.47 48.6572 223.092C50.6 222.536 52.3936 221.535 53.9026 220.167C55.6965 218.568 57.3308 216.791 58.7816 214.862C60.4469 212.805 62.112 210.526 63.9937 208.231C66.0098 205.633 68.4626 203.422 71.2374 201.701C72.0177 201.243 72.8303 200.845 73.6685 200.511C74.6104 200.15 75.5873 199.894 76.5827 199.746C78.5616 199.475 80.5746 199.655 82.4775 200.273C85.5323 201.352 88.3949 202.931 90.9534 204.949C93.268 206.649 95.3828 208.231 97.3144 209.421C98.155 209.936 99.0416 210.369 99.9621 210.713C100.599 210.935 101.271 211.033 101.944 211.002C102.239 211 102.531 210.948 102.81 210.849H103.043L103.442 210.679C103.709 210.577 103.992 210.475 104.242 210.356C105.211 209.944 106.142 209.443 107.023 208.86C108.598 207.905 109.857 206.489 110.636 204.796C112.301 201.208 112.884 194.95 115.149 189.118C115.432 188.387 115.748 187.656 116.065 186.925C116.475 186.027 116.972 185.172 117.547 184.374C118.594 182.914 119.845 181.62 121.26 180.531C123.707 178.683 126.349 177.121 129.136 175.872C134.349 173.44 139.494 171.536 144.123 169.257C146.194 168.312 148.105 167.038 149.785 165.482C150.273 165.008 150.649 164.427 150.884 163.782C150.884 163.782 150.884 163.663 150.884 163.612V163.238L151.034 162.405C151.034 161.861 151.15 161.316 151.15 160.806C151.232 158.801 150.753 156.813 149.768 155.076C148.465 152.954 146.977 150.957 145.322 149.108C143.268 146.707 141.537 144.036 140.177 141.167C138.782 138.05 138.011 134.679 137.912 131.253C137.734 127.499 138.656 123.775 140.56 120.558C142.41 117.68 144.819 115.22 147.637 113.331C152.632 109.93 157.328 107.584 160.126 104.421C161.523 102.889 162.56 101.051 163.157 99.0476C163.769 96.9135 163.945 94.6734 163.673 92.467C162.893 87.3872 161.253 82.4849 158.827 77.9795L158.744 77.8265C158.422 77.2239 158.346 76.5158 158.533 75.8564C158.721 75.1971 159.155 74.6401 159.743 74.3066C160.229 74.0336 160.789 73.9323 161.338 74.0184C161.886 74.1045 162.391 74.3732 162.774 74.7828C168.215 80.5421 172.905 86.9946 176.728 93.9803C180.544 100.908 183.594 108.248 185.82 115.865ZM180.325 117.446C178.387 110.158 175.655 103.114 172.182 96.4459C168.7 89.8024 164.353 83.6707 159.26 78.2176L163.206 75.0208C167.025 79.6592 169.784 85.1077 171.283 90.9706C172.022 94.2491 172.079 97.6497 171.449 100.952C171.073 102.642 170.514 104.284 169.784 105.849C169.066 107.443 168.148 108.935 167.053 110.287C162.59 115.575 157.195 118.16 153.315 121.119C151.57 122.304 150.066 123.823 148.886 125.591C147.955 127.174 147.492 128.999 147.554 130.845C147.554 135.368 149.219 138.922 152.549 143.139C154.474 145.486 156.186 148.007 157.661 150.672C159.312 153.847 160.089 157.42 159.909 161.01C159.863 161.865 159.774 162.716 159.643 163.561L159.426 164.785C159.426 165.006 159.426 165.142 159.293 165.431C159.231 165.713 159.153 165.992 159.06 166.265C158.38 168.254 157.237 170.045 155.73 171.485C153.372 173.688 150.692 175.501 147.787 176.858C142.541 179.46 137.379 181.228 132.717 183.541C130.529 184.562 128.452 185.815 126.522 187.282C125.765 187.881 125.092 188.585 124.524 189.373C124.295 189.698 124.11 190.052 123.974 190.427C123.741 190.988 123.541 191.55 123.342 192.128C122.565 194.553 121.98 197.038 121.593 199.559C121.196 202.662 120.453 205.708 119.378 208.639C117.976 212.08 115.628 215.033 112.618 217.141C111.239 218.105 109.772 218.931 108.238 219.606C107.872 219.793 107.505 219.929 107.139 220.082L106.59 220.32L105.857 220.559C104.851 220.912 103.804 221.129 102.743 221.205C100.686 221.377 98.617 221.087 96.6817 220.355C95.0405 219.751 93.4797 218.94 92.0357 217.94C89.6834 216.246 87.4263 214.418 85.275 212.465C83.6267 210.926 81.7704 209.638 79.7632 208.639C79.0427 208.319 78.2551 208.188 77.4726 208.26C76.69 208.331 75.9374 208.602 75.2838 209.047C73.3844 210.21 71.7359 211.754 70.4381 213.587C68.9061 215.593 67.4573 217.906 65.7588 220.253C64.0085 222.833 61.9311 225.166 59.5809 227.19C58.2579 228.28 56.8163 229.21 55.2847 229.962C53.6964 230.704 52.0153 231.219 50.2891 231.492C48.4062 231.793 46.4822 231.683 44.6441 231.169C43.0371 230.742 41.4919 230.102 40.0481 229.265C37.4554 227.735 35.1032 225.814 33.0709 223.568L36.6511 219.997C42.8572 226.887 50.5397 232.218 59.098 235.573C67.6732 238.636 76.8086 239.71 85.8412 238.719C95.1449 237.709 104.255 235.321 112.884 231.628C121.63 227.951 129.929 223.249 137.612 217.617C141.443 214.806 145.086 211.738 148.519 208.435C151.95 205.034 155.18 201.548 158.361 197.858C164.58 190.515 169.862 182.396 174.08 173.695C178.279 165.025 181.02 155.696 182.19 146.098C183.356 136.524 182.723 126.811 180.325 117.48V117.446Z" fill="#F491A4"/>
<path d="M59.0813 219.981C66.1918 222.004 72.6028 224.249 79.3635 225.235C87.8375 226.359 96.452 225.186 104.342 221.834L106.806 220.814L109.237 219.675C112.452 218.163 115.577 216.459 118.596 214.573C124.633 210.698 130.219 206.134 135.248 200.97C140.348 195.764 144.995 190.115 149.135 184.085C151.2 181.058 153.315 177.879 155.097 174.801C156.914 171.696 158.511 168.463 159.876 165.126C162.623 158.375 164.595 151.322 165.754 144.109C167.021 136.992 167.195 129.718 166.27 122.547V122.411C166.169 121.521 166.403 120.625 166.924 119.904C167.445 119.183 168.214 118.691 169.077 118.527C169.939 118.363 170.831 118.539 171.571 119.02C172.311 119.501 172.845 120.252 173.064 121.119C174.577 129.072 174.774 137.228 173.647 145.248C172.718 153.196 170.816 160.994 167.986 168.458C166.545 172.222 164.842 175.876 162.89 179.392C160.958 182.946 158.894 186.194 156.745 189.441C152.423 196.041 147.518 202.222 142.092 207.908C136.601 213.595 130.495 218.626 123.891 222.905C120.549 225.046 117.084 226.983 113.517 228.704L110.852 229.979L108.122 231.118C106.272 231.926 104.382 232.636 102.46 233.244C94.5927 235.75 86.2872 236.487 78.1146 235.403C70.0346 234.525 62.3597 231.343 55.9674 226.221C55.3334 225.699 54.8954 224.97 54.7277 224.157C54.56 223.343 54.6728 222.495 55.0471 221.757C55.4213 221.019 56.0341 220.435 56.7814 220.105C57.5288 219.775 58.3648 219.719 59.1479 219.947L59.0813 219.981Z" fill="#F491A4"/>
<path d="M161.075 76.4153C146.804 61.3667 129.436 54.6331 115.748 55.5683C86.0077 57.6088 63.0112 79.8501 49.0568 99.1157C41.2035 109.849 34.7807 121.599 29.957 134.059C21.2313 156.878 19.1997 180.616 25.6774 202.67C27.6204 209.429 30.6661 215.804 34.6861 221.528C39.6817 225.439 45.0603 228.176 49.5064 227.292C52.4915 226.674 55.2515 225.226 57.4828 223.109C64.1436 217.158 67.6904 207.074 75.4836 204.405C85.9077 200.783 94.1005 219.708 104.874 215.559C119.162 210.067 114.866 200.256 120.178 188.472C125.073 177.47 152.849 175.107 155.147 164.377C158.477 148.7 143.207 146.982 142.808 130.93C142.475 116.324 159.46 115.287 165.438 104.812C170.333 96.225 167.386 86.4306 161.075 76.4153ZM101.561 150.672C100.428 156.11 97.3382 160.916 92.9016 164.139C90.4475 165.791 87.4819 166.457 84.5756 166.01C76.8157 164.853 75.2504 156.079 78.431 147.203C81.7614 137.851 91.1198 129.162 97.764 130.454C102.76 131.44 103.909 141.422 101.561 150.672V150.672Z" stroke="#F491A4" stroke-width="4.87" stroke-linecap="round" stroke-linejoin="round"/>
<path d="M98.1137 144.363C98.0121 145.183 97.862 145.995 97.6641 146.795L98.0637 146.217C98.2777 145.96 98.3992 145.636 98.4083 145.299C98.4174 144.962 98.3134 144.632 98.1137 144.363ZM98.1137 144.363C98.0121 145.183 97.862 145.995 97.6641 146.795L98.0637 146.217C98.2777 145.96 98.3992 145.636 98.4083 145.299C98.4174 144.962 98.3134 144.632 98.1137 144.363ZM98.1137 144.363C98.0121 145.183 97.862 145.995 97.6641 146.795L98.0637 146.217C98.2777 145.96 98.3992 145.636 98.4083 145.299C98.4174 144.962 98.3134 144.632 98.1137 144.363Z" fill="#F491A4"/>
<path d="M103.492 130.029C102.952 129.428 102.323 128.917 101.627 128.516C100.741 127.975 99.7543 127.628 98.7298 127.495C96.8819 127.243 95.0035 127.365 93.2014 127.853C92.3688 128.091 91.5361 128.363 90.8368 128.652C90.1374 128.941 89.3714 129.298 88.7553 129.655C86.4406 130.987 84.2981 132.609 82.3775 134.484C79.0428 137.715 76.3315 141.556 74.3846 145.809C72.5441 149.703 71.6801 154.004 71.8701 158.324C72.0206 160.685 72.7601 162.968 74.0182 164.955C74.8281 166.146 75.837 167.183 76.9989 168.016C78.438 168.989 80.0416 169.681 81.7281 170.057C85.4819 170.942 89.413 170.603 92.9682 169.087C95.9072 167.824 98.5141 165.873 100.578 163.391C102.152 161.508 103.437 159.392 104.392 157.116C105.253 155.129 105.906 153.055 106.34 150.927C107.158 147.016 107.338 142.995 106.873 139.024C106.653 136.97 106.142 134.96 105.357 133.056C104.891 131.955 104.262 130.934 103.492 130.029ZM101.561 150.672C100.549 155.155 98.2942 159.246 95.0664 162.456C94.4048 163.091 93.6855 163.66 92.9183 164.156C92.137 164.668 91.3054 165.096 90.4371 165.431C88.5874 166.133 86.5934 166.344 84.6422 166.044C76.8824 164.887 75.3171 156.096 78.5143 147.237C81.8447 137.885 91.1865 129.196 97.8473 130.488C102.76 131.423 103.909 141.405 101.561 150.672Z" fill="#F491A4"/>
<path d="M97.8473 130.454C91.1865 129.162 81.878 137.851 78.5143 147.203C75.3171 156.062 76.8491 164.853 84.6423 166.01C86.5935 166.31 88.5874 166.099 90.4372 165.397C91.3055 165.062 92.1371 164.634 92.9183 164.122C93.6855 163.626 94.4048 163.057 95.0665 162.422C98.2943 159.212 100.549 155.121 101.561 150.638C103.909 141.405 102.76 131.423 97.8473 130.454ZM97.8473 135.555C98.2854 137.079 98.4987 138.661 98.4801 140.248C98.4645 141.643 98.3588 143.034 98.1637 144.414C98.3542 144.671 98.4572 144.985 98.4572 145.307C98.4572 145.629 98.3542 145.943 98.1637 146.2L97.7641 146.778C97.5476 147.985 97.2312 149.176 96.8982 150.366C96.2077 152.667 95.1743 154.847 93.8342 156.827C93.2743 157.648 92.6446 158.416 91.9525 159.123C91.0389 160.079 89.9533 160.847 88.7553 161.384C87.9487 161.725 87.0588 161.802 86.2076 161.605C85.752 161.533 85.3153 161.367 84.9234 161.119C84.5316 160.871 84.1925 160.545 83.9262 160.16C83.0917 159.128 82.5197 157.901 82.261 156.589C81.7742 153.408 82.0953 150.153 83.1935 147.135C84.3382 143.711 86.183 140.576 88.6055 137.936C89.8297 136.601 91.2377 135.455 92.7851 134.535C93.8236 133.782 95.076 133.4 96.3487 133.447H96.4486C96.5318 133.447 96.6817 133.685 96.8482 133.821C97.2634 134.318 97.5852 134.888 97.7974 135.504L97.8473 135.555Z" fill="#F491A4"/>
<path d="M98.1303 146.149L97.7306 146.727C96.9341 147.989 96.2166 149.301 95.5825 150.655C94.894 152.127 94.3689 153.672 94.0172 155.263C93.9173 155.773 93.8507 156.266 93.8007 156.776C93.2408 157.597 92.6111 158.365 91.9191 159.072C91.0054 160.028 89.9199 160.796 88.7219 161.334C88.7219 161.13 88.6219 160.891 88.5886 160.687C88.3226 158.788 88.4531 156.852 88.9716 155.008C89.4562 153.156 90.155 151.369 91.0531 149.686C91.9676 147.899 93.0259 146.193 94.217 144.585C94.6045 144.136 95.1123 143.813 95.6776 143.656C96.2428 143.499 96.8408 143.514 97.3976 143.7C97.6924 143.825 97.9588 144.01 98.1802 144.245C98.3929 144.517 98.5045 144.858 98.4954 145.206C98.4863 145.554 98.357 145.888 98.1303 146.149Z" fill="#F491A4"/>
<path d="M126.472 99.3026L134.398 90.4605C134.575 90.2835 134.808 90.1782 135.055 90.1645C135.302 90.1508 135.546 90.2296 135.74 90.3861C135.934 90.5427 136.066 90.7661 136.11 91.0146C136.154 91.2631 136.108 91.5195 135.98 91.7358L129.32 101.615C129.026 101.974 128.612 102.208 128.158 102.271C127.704 102.333 127.244 102.22 126.868 101.954C126.492 101.687 126.227 101.286 126.126 100.83C126.025 100.374 126.095 99.8957 126.322 99.4897L126.472 99.3026Z" fill="#F491A4"/>
<path d="M90.587 90.2734L95.3495 80.3431C95.4623 80.1087 95.6575 79.9264 95.8962 79.8326C96.1348 79.7388 96.3993 79.7403 96.6369 79.8369C96.8745 79.9335 97.0676 80.1181 97.1778 80.3538C97.2879 80.5894 97.307 80.8589 97.2312 81.1082L93.9008 91.6508C93.8456 91.9038 93.7394 92.1425 93.5891 92.3514C93.4388 92.5604 93.2475 92.7352 93.0276 92.8646C92.8076 92.9941 92.5636 93.0755 92.3112 93.1036C92.0588 93.1316 91.8034 93.1058 91.5613 93.0277C91.3191 92.9497 91.0955 92.821 90.9047 92.65C90.7138 92.479 90.5599 92.2693 90.4526 92.0343C90.3453 91.7993 90.2871 91.5441 90.2816 91.2848C90.276 91.0256 90.3233 90.7681 90.4205 90.5285L90.587 90.2734Z" fill="#F491A4"/>
<path d="M54.8184 111.954L62.7114 119.827C62.887 120.011 62.9894 120.255 62.9987 120.512C63.008 120.768 62.9236 121.02 62.7619 121.217C62.6002 121.414 62.3726 121.542 62.1233 121.577C61.874 121.613 61.6207 121.552 61.4126 121.408L52.4704 114.793C52.1289 114.485 51.9124 114.057 51.8631 113.595C51.8137 113.132 51.9352 112.667 52.2037 112.291C52.4722 111.914 52.8685 111.654 53.3151 111.56C53.7617 111.466 54.2264 111.546 54.6186 111.784L54.8184 111.954Z" fill="#F491A4"/>
<path d="M53.2199 162.405L64.1436 155.603C64.2583 155.532 64.3855 155.485 64.5181 155.465C64.6506 155.445 64.7858 155.451 64.9158 155.484C65.0458 155.518 65.1681 155.577 65.2757 155.658C65.3832 155.74 65.4738 155.843 65.5424 155.96C65.6728 156.174 65.7211 156.43 65.678 156.678C65.635 156.926 65.5036 157.149 65.3092 157.304L55.318 165.415C54.9376 165.72 54.4545 165.859 53.974 165.801C53.4936 165.744 53.0549 165.495 52.7536 165.108C52.6036 164.917 52.4922 164.697 52.426 164.461C52.3598 164.226 52.3401 163.979 52.368 163.735C52.3959 163.492 52.4708 163.256 52.5884 163.042C52.7061 162.829 52.8641 162.641 53.0534 162.49L53.2199 162.405Z" fill="#F491A4"/>
<path d="M55.0183 143.241L44.4609 137.494C44.3429 137.431 44.2384 137.345 44.1533 137.241C44.0683 137.136 44.0046 137.016 43.9658 136.886C43.927 136.756 43.914 136.62 43.9275 136.484C43.9411 136.349 43.9809 136.218 44.0446 136.099C44.1616 135.88 44.3524 135.71 44.5819 135.623C44.8114 135.535 45.0641 135.535 45.2935 135.623L56.5003 139.857C56.7245 139.942 56.93 140.071 57.1053 140.237C57.2806 140.403 57.4222 140.603 57.5219 140.825C57.6216 141.046 57.6776 141.286 57.6866 141.53C57.6956 141.774 57.6575 142.017 57.5744 142.246C57.4913 142.475 57.3648 142.685 57.2023 142.864C57.0397 143.043 56.8443 143.188 56.627 143.289C56.4098 143.391 56.175 143.448 55.9361 143.458C55.6972 143.467 55.4589 143.428 55.2348 143.343L55.0183 143.241Z" fill="#F491A4"/>
<path d="M34.5696 180.055L32.7379 169.852C32.705 169.602 32.7627 169.348 32.9002 169.138C33.0376 168.928 33.2454 168.777 33.4845 168.712C33.7236 168.647 33.9776 168.674 34.1988 168.787C34.4201 168.9 34.5934 169.091 34.6862 169.325L38.0166 179.001C38.0964 179.231 38.1311 179.474 38.1186 179.718C38.1062 179.962 38.0468 180.201 37.944 180.421C37.8412 180.641 37.6969 180.839 37.5193 181.002C37.3418 181.165 37.1345 181.291 36.9092 181.373C36.684 181.454 36.4452 181.49 36.2066 181.477C35.968 181.464 35.7341 181.404 35.5184 181.299C35.3027 181.194 35.1094 181.046 34.9494 180.865C34.7895 180.684 34.6661 180.472 34.5863 180.242C34.5773 180.18 34.5718 180.117 34.5696 180.055Z" fill="#F491A4"/>
<path d="M48.9569 190.036L61.5292 192.91C61.6586 192.938 61.7813 192.992 61.8901 193.069C61.9989 193.146 62.0916 193.245 62.1629 193.359C62.2342 193.473 62.2826 193.6 62.3053 193.733C62.328 193.866 62.3245 194.003 62.2951 194.134C62.2433 194.382 62.1046 194.601 61.9053 194.752C61.7059 194.902 61.4596 194.973 61.2128 194.951L48.3907 193.692C48.1487 193.676 47.9123 193.611 47.6955 193.5C47.4786 193.389 47.2858 193.235 47.1282 193.047C46.9707 192.858 46.8517 192.64 46.7783 192.404C46.7049 192.168 46.6785 191.919 46.7008 191.673C46.723 191.426 46.7935 191.186 46.9079 190.968C47.0223 190.75 47.1784 190.557 47.367 190.401C47.5556 190.246 47.7728 190.13 48.0058 190.062C48.2388 189.993 48.483 189.973 48.7238 190.002L48.9569 190.036Z" fill="#F491A4"/>
<path d="M104.708 181.143L111.519 189.645C111.685 189.861 111.762 190.134 111.734 190.407C111.706 190.68 111.575 190.932 111.369 191.107C111.185 191.267 110.952 191.354 110.711 191.354C110.47 191.354 110.237 191.267 110.053 191.107L102.077 183.745C101.9 183.581 101.756 183.382 101.654 183.162C101.552 182.941 101.493 182.702 101.482 182.458C101.47 182.214 101.505 181.97 101.586 181.74C101.667 181.51 101.791 181.298 101.952 181.118C102.113 180.937 102.307 180.79 102.523 180.686C102.739 180.581 102.974 180.522 103.212 180.51C103.451 180.498 103.69 180.534 103.915 180.617C104.14 180.699 104.347 180.826 104.525 180.99C104.591 181.034 104.653 181.085 104.708 181.143Z" fill="#F491A4"/>
<path d="M78.5142 187.673L86.2574 178.695C86.4208 178.469 86.6653 178.319 86.937 178.278C87.2087 178.236 87.4854 178.307 87.7062 178.474C87.927 178.64 88.0738 178.89 88.1144 179.167C88.155 179.445 88.086 179.727 87.9226 179.953L81.445 189.883C81.3127 190.087 81.1425 190.261 80.9441 190.397C80.7457 190.533 80.5231 190.628 80.2888 190.676C80.0545 190.724 79.8133 190.725 79.5788 190.678C79.3443 190.631 79.1212 190.537 78.9222 190.402C78.7232 190.267 78.5522 190.093 78.419 189.891C78.2858 189.688 78.1929 189.461 78.1458 189.221C78.0986 188.982 78.0981 188.736 78.1441 188.496C78.1902 188.257 78.282 188.029 78.4143 187.826L78.5142 187.673Z" fill="#F491A4"/>
<path d="M128.287 156.929L127.521 146.727C127.521 146.476 127.609 146.233 127.769 146.042C127.929 145.852 128.15 145.725 128.393 145.686C128.636 145.647 128.885 145.698 129.094 145.83C129.304 145.961 129.46 146.165 129.536 146.404L131.884 156.402C131.948 156.863 131.841 157.332 131.585 157.717C131.328 158.102 130.94 158.375 130.497 158.484C130.053 158.592 129.586 158.528 129.187 158.303C128.788 158.079 128.485 157.71 128.337 157.27C128.298 157.161 128.281 157.045 128.287 156.929Z" fill="#F491A4"/>
<path d="M118.479 135.793L126.405 126.951C126.489 126.84 126.592 126.746 126.711 126.675C126.83 126.604 126.961 126.558 127.097 126.539C127.233 126.52 127.371 126.529 127.504 126.565C127.637 126.6 127.762 126.662 127.871 126.747C127.98 126.832 128.072 126.938 128.141 127.059C128.211 127.18 128.256 127.314 128.274 127.453C128.293 127.592 128.284 127.733 128.249 127.869C128.215 128.005 128.154 128.132 128.071 128.244L121.41 138.106C121.136 138.512 120.716 138.79 120.241 138.879C119.766 138.969 119.276 138.862 118.879 138.582C118.481 138.303 118.209 137.873 118.121 137.388C118.034 136.904 118.139 136.403 118.413 135.997C118.43 135.928 118.452 135.86 118.479 135.793Z" fill="#F491A4"/>
<path d="M88.1225 110.236L101.594 109.42C101.861 109.406 102.122 109.5 102.322 109.682C102.521 109.863 102.643 110.117 102.66 110.389C102.672 110.643 102.595 110.892 102.442 111.092C102.289 111.292 102.071 111.429 101.827 111.478L88.5055 113.926C88.0307 114.014 87.5412 113.906 87.1446 113.625C86.748 113.345 86.4768 112.915 86.3907 112.43C86.3046 111.945 86.4106 111.445 86.6854 111.04C86.9602 110.635 87.3813 110.358 87.8561 110.27L88.1225 110.236Z" fill="#F491A4"/>
</svg>
