<svg width="204" height="75" viewBox="0 0 204 75" fill="none" xmlns="http://www.w3.org/2000/svg">
<path d="M130.737 31.9938C129.362 37.5734 127.862 43.7326 126.588 49.3818C126.129 51.4452 125.648 54.0186 125.236 56.0897C124.824 58.1608 124.521 60.3942 124.109 62.3571C123.985 63.1678 123.557 63.902 122.912 64.4127C122.612 64.6674 122.26 64.8544 121.881 64.9612C121.501 65.0679 121.103 65.0917 120.713 65.0309C120.335 65.0773 119.952 65.0239 119.601 64.876C119.25 64.7281 118.945 64.4911 118.716 64.1886C118.471 63.8919 118.292 63.5473 118.19 63.1771C118.089 62.8069 118.066 62.4195 118.125 62.0402C118.248 60.8513 118.435 59.6697 118.685 58.5008C118.926 57.1716 119.283 55.2087 119.579 53.7404C119.874 52.2721 120.193 50.541 120.472 49.1036C120.938 46.7234 121.405 44.5363 121.949 42.2411C122.493 39.9459 123.044 37.8053 123.689 35.5023C123.837 34.9846 123.992 34.2813 124.163 33.6631C124.41 32.9986 124.594 32.3131 124.715 31.6152L130.737 31.9938Z" fill="#F491A4"/>
<path d="M133.955 53.9876C133.442 52.2585 133.224 50.4561 133.31 48.6553C133.293 45.1625 133.817 41.688 134.864 38.3539C135.055 37.6346 135.496 37.0054 136.107 36.5765C136.84 36.1649 137.676 35.9717 138.516 36.0201C138.919 35.9873 139.323 36.0592 139.689 36.2287C139.808 36.3177 139.901 36.4357 139.959 36.5712C140.018 36.7067 140.04 36.855 140.023 37.0015C139.912 38.0214 139.701 39.0282 139.394 40.0077C139.114 41.1128 138.897 42.0866 138.726 42.9212C138.529 43.9431 138.389 44.9751 138.306 46.0124C139.064 43.9308 140.11 41.9644 141.414 40.17C142.322 38.8938 143.47 37.8046 144.795 36.9629C145.704 36.3813 146.753 36.0506 147.833 36.0046C149.651 36.0046 150.561 36.9011 150.561 38.7094C150.487 39.5921 150.36 40.4696 150.18 41.3369C150.019 42.0238 149.908 42.721 149.846 43.4235C149.846 44.3972 150.195 44.8841 150.895 44.8841C151.672 44.8841 152.682 44.2736 153.91 43.0448C154.054 42.8848 154.228 42.7546 154.423 42.6618C154.617 42.569 154.829 42.5153 155.044 42.5039C155.218 42.5013 155.389 42.5442 155.54 42.6284C155.692 42.7125 155.818 42.8348 155.907 42.983C156.132 43.3694 156.24 43.8122 156.218 44.2581C156.242 44.7003 156.178 45.143 156.03 45.5607C155.882 45.9784 155.653 46.363 155.355 46.6924C154.55 47.5133 153.625 48.2089 152.612 48.7558C151.593 49.3202 150.445 49.6155 149.278 49.6136C148.046 49.6978 146.83 49.292 145.898 48.4853C145.506 48.0839 145.201 47.6062 145.004 47.0823C144.806 46.5584 144.719 45.9994 144.748 45.4405C144.747 45.0201 144.789 44.6007 144.872 44.1886C144.927 43.6322 144.958 43.2612 144.958 43.0603C144.958 42.6198 144.802 42.3957 144.499 42.3957C144.196 42.3957 143.528 42.8594 142.836 43.7944C142.029 44.9472 141.349 46.1831 140.808 47.4807C140.123 49.0434 139.574 50.662 139.169 52.3184C139.017 53.2698 138.653 54.1754 138.104 54.9691C137.855 55.2145 137.554 55.4031 137.224 55.5219C136.894 55.6406 136.542 55.6867 136.192 55.6569C135.688 55.6569 135.197 55.4942 134.794 55.1932C134.39 54.8922 134.096 54.4692 133.955 53.9876Z" fill="#F491A4"/>
<path d="M153.311 53.779C152.225 52.3724 151.674 50.6283 151.757 48.8563C151.753 46.6576 152.287 44.4908 153.311 42.5425C154.275 40.6358 155.691 38.9913 157.438 37.7512C159.014 36.5923 160.917 35.9568 162.877 35.9351C163.097 35.9071 163.32 35.9242 163.532 35.9853C163.745 36.0465 163.942 36.1504 164.113 36.2906C164.387 36.6658 164.568 37.1 164.641 37.558C165.249 37.448 165.865 37.3937 166.483 37.3957C167.858 37.3957 168.542 37.8825 168.542 38.8485C168.427 40.2521 168.217 41.6464 167.913 43.0216C167.426 45.2159 167.124 47.4467 167.011 49.6909C166.994 50.0516 167.104 50.407 167.322 50.6955C167.416 50.8101 167.535 50.9027 167.669 50.9668C167.803 51.0309 167.95 51.0649 168.099 51.0665C168.845 50.9632 169.53 50.602 170.034 50.0464C171.122 49.0072 172.142 47.8999 173.088 46.7311C173.222 46.5571 173.394 46.4149 173.59 46.3146C173.786 46.2144 174.002 46.1587 174.222 46.1515C174.398 46.1488 174.57 46.1934 174.722 46.2805C174.874 46.3676 175 46.4939 175.085 46.6461C175.314 47.07 175.422 47.5486 175.396 48.0294C175.457 48.9546 175.181 49.8707 174.619 50.6105C173.554 51.9499 172.327 53.1542 170.967 54.1963C169.92 55.0794 168.608 55.593 167.237 55.6569C166.299 55.6622 165.391 55.3301 164.68 54.7218C163.884 54.0487 163.287 53.1723 162.955 52.187C161.499 54.5209 159.668 55.6878 157.461 55.6878C156.668 55.7129 155.879 55.5534 155.159 55.222C154.439 54.8906 153.806 54.3965 153.311 53.779ZM160.732 50.3632C161.349 49.5052 161.764 48.5199 161.945 47.4807L163.499 39.8145C162.293 39.8506 161.14 40.3169 160.251 41.1283C159.207 42.0364 158.395 43.178 157.881 44.4591C157.288 45.8578 156.987 47.3616 156.995 48.8795C156.943 49.5598 157.13 50.2371 157.523 50.796C157.7 51.0037 157.922 51.1683 158.172 51.2768C158.423 51.3854 158.695 51.4351 158.969 51.422C159.324 51.3917 159.669 51.2805 159.975 51.0969C160.28 50.9133 160.54 50.6623 160.732 50.3632Z" fill="#F491A4"/>
<path d="M173.228 53.7326C172.337 52.1895 171.908 50.4251 171.992 48.6476C172.025 47.03 172.186 45.4176 172.474 43.8253C172.768 41.9747 173.181 40.1446 173.71 38.3462C173.849 37.6463 174.198 37.005 174.712 36.5069C175.311 36.1279 176.017 35.9542 176.725 36.0124C178.155 36.0124 178.869 36.4838 178.869 37.4266C178.73 39.056 178.471 40.6729 178.092 42.2643C177.58 44.2925 177.244 46.361 177.09 48.4467C177.054 49.1024 177.169 49.7576 177.424 50.3632C177.522 50.5749 177.682 50.7519 177.883 50.8707C178.084 50.9894 178.317 51.0442 178.551 51.0278C179.284 50.9178 179.954 50.5505 180.439 49.9923C181.513 48.9538 182.522 47.8518 183.462 46.6924C183.594 46.5178 183.764 46.375 183.959 46.2746C184.154 46.1743 184.369 46.119 184.589 46.1128C184.764 46.1102 184.937 46.1548 185.089 46.2418C185.24 46.3289 185.366 46.4552 185.451 46.6074C185.683 47.0306 185.794 47.5092 185.77 47.9907C185.831 48.9159 185.555 49.8321 184.993 50.5719C182.226 53.9361 179.636 55.6182 177.222 55.6182C176.448 55.6866 175.669 55.5479 174.967 55.2163C174.264 54.8848 173.664 54.3725 173.228 53.7326ZM174.883 32.442C174.582 32.1489 174.349 31.7952 174.197 31.4046C174.046 31.014 173.98 30.5956 174.005 30.1777C173.999 29.7107 174.099 29.2484 174.298 28.8254C174.497 28.4025 174.79 28.0299 175.155 27.7357C175.962 27.0726 176.984 26.7262 178.03 26.762C178.931 26.7251 179.818 26.998 180.54 27.5348C180.861 27.7861 181.117 28.1102 181.286 28.4799C181.455 28.8497 181.532 29.2543 181.511 29.66C181.534 30.1545 181.448 30.6481 181.259 31.106C181.07 31.5639 180.782 31.9751 180.416 32.3107C179.612 32.9886 178.578 33.3368 177.525 33.2844C176.562 33.3553 175.608 33.0566 174.86 32.4498L174.883 32.442Z" fill="#F491A4"/>
<path d="M195.367 49.1499C195.542 49.1588 195.712 49.2163 195.856 49.316C196 49.4157 196.113 49.5536 196.183 49.7141C196.401 50.131 196.508 50.5966 196.493 51.0664C196.515 51.5977 196.412 52.1267 196.194 52.612C195.976 53.0973 195.647 53.5258 195.235 53.864C193.866 55.0261 192.123 55.6622 190.323 55.6569C189.135 55.7171 187.954 55.4367 186.921 54.849C185.888 54.2613 185.046 53.391 184.495 52.3416C183.257 50.1314 182.641 47.2463 182.646 43.6862C182.703 39.7885 183.146 35.9059 183.967 32.0943C184.692 28.1969 186.002 24.43 187.852 20.9196C189.567 17.8284 191.616 16.2828 193.999 16.2828C194.646 16.2769 195.282 16.4465 195.839 16.7733C196.397 17.1001 196.854 17.5717 197.162 18.1375C198.024 19.773 198.421 21.6111 198.312 23.4544C198.312 26.762 197.397 30.5976 195.569 34.9613C193.598 39.544 191.08 43.8744 188.07 47.8593C188.158 48.7661 188.524 49.624 189.119 50.3168C189.389 50.5791 189.711 50.7831 190.064 50.9161C190.417 51.049 190.793 51.1081 191.171 51.0896C191.733 51.0711 192.284 50.9313 192.787 50.68C193.389 50.3992 193.947 50.0321 194.442 49.5904C194.682 49.3305 195.013 49.1727 195.367 49.1499ZM190.875 23.8408C189.951 26.6468 189.247 29.5199 188.769 32.4343C188.172 35.6818 187.837 38.9715 187.767 42.272C189.67 39.1795 191.256 35.9044 192.499 32.4961C193.577 29.6317 194.155 26.6052 194.209 23.5471C194.209 21.4374 193.82 20.3787 193.035 20.3787C192.414 20.3787 191.691 21.5301 190.875 23.8408Z" fill="#F491A4"/>
<path d="M117.582 30.3169C114.473 30.6105 108.847 29.8532 109.36 25.541C109.508 24.2736 109.834 23.068 108.808 22.0788C108.163 21.4529 107.379 20.8965 106.477 21.3447C105.773 21.7383 105.205 22.3334 104.845 23.0526C104.39 24.0156 104.236 25.0925 104.402 26.1437C104.698 28.0054 105.495 29.7528 106.708 31.2004C107.922 32.6481 109.507 33.7421 111.295 34.3663C113.468 35.1247 115.792 35.35 118.071 35.0232C118.304 35.0232 118.475 34.9691 118.763 34.9227C124.435 34.0031 128.158 32.8671 134.374 31.6306C138.213 30.8578 145.712 29.6445 150.157 29.915C154.384 30.17 157.966 30.8424 161.976 31.3988C162.65 31.5186 163.334 31.5781 164.02 31.5765C164.369 31.5767 164.709 31.4596 164.983 31.2442C165.397 30.9216 165.698 30.4785 165.846 29.9768C166.041 29.4833 166.063 28.9387 165.908 28.4312C165.829 28.1715 165.698 27.9302 165.523 27.7217C165.348 27.5133 165.133 27.342 164.89 27.2179C164.056 26.8581 163.182 26.5986 162.287 26.4451C161.393 26.2288 160.492 26.0201 159.575 25.8578C157.626 25.4623 155.657 25.1759 153.677 25C151.323 24.782 148.955 24.7613 146.598 24.9382C140.94 25.4869 134.359 26.6152 128.973 27.7125C125.531 28.408 123.402 29.1036 120.255 29.8377C119.377 30.0625 118.483 30.2227 117.582 30.3169Z" fill="#F491A4"/>
<path d="M8.55023 31.6461H17.2923C24.7755 31.6461 28.117 35.8114 28.117 44.0649C28.117 52.898 24.6046 57.4111 17.1524 57.4111H8.55023V31.6461ZM15.4817 52.4652H16.8805C19.8567 52.4652 20.9135 50.51 20.9135 44.0417C20.9135 38.5008 19.9732 36.6229 16.9426 36.6229H15.4817V52.4652Z" fill="#F2F2F3"/>
<path d="M55.4544 57.4111V31.6461H63.2252C67.3592 43.5781 68.315 46.6074 68.587 47.6971H68.7191C68.4549 44.4977 68.3461 40.0541 68.3461 36.1051V31.6461H74.5394V57.4111H66.9085C62.4869 44.0495 61.7409 41.592 61.469 40.5641H61.3291C61.5544 43.7094 61.6399 48.5394 61.6399 52.7512V57.3879L55.4544 57.4111Z" fill="#F2F2F3"/>
<path d="M85.5505 31.6461V49.2504C85.5505 51.0665 85.9857 52.8362 88.2314 52.8362C90.4772 52.8362 90.8579 51.221 90.8579 49.2581V31.6461H97.7661V48.9335C97.7661 54.7295 94.72 57.9134 88.1071 57.9134C81.4942 57.9134 78.7045 54.6832 78.7045 48.8949V31.6461H85.5505Z" fill="#F2F2F3"/>
<path d="M8.55023 31.6461H17.2923C24.7755 31.6461 28.117 35.8114 28.117 44.0649C28.117 52.898 24.6046 57.4111 17.1524 57.4111H8.55023V31.6461ZM15.4817 52.4652H16.8805C19.8567 52.4652 20.9135 50.51 20.9135 44.0417C20.9135 38.5008 19.9732 36.6229 16.9426 36.6229H15.4817V52.4652Z" fill="#F2F2F3"/>
<path d="M105.809 36.9165H100.136V31.6461H118.289V36.9165H112.67V57.4111H105.809V36.9165Z" fill="#F2F2F3"/>
<path d="M55.0659 39.0495C56.62 44.5981 54.5297 50.5332 49.5409 55.425C44.8785 59.9846 36.0198 63.4467 30.5725 59.1654C29.8611 58.6114 29.2285 57.9641 28.692 57.2411C29.4058 57.9073 30.3555 58.2657 31.334 58.238C31.863 58.1281 32.352 57.877 32.7483 57.5116C33.9217 56.4838 34.5589 54.7373 35.9499 54.2736C37.7993 53.6476 39.2602 56.9165 41.1718 56.2056C43.7128 55.255 42.9591 53.5626 43.8916 51.5147C44.7619 49.6059 49.6963 49.1963 50.1082 47.3416C50.6987 44.6291 47.979 44.3277 47.909 41.5533C47.8546 39.0263 50.8697 38.8408 51.9343 37.0247C52.8124 35.5487 52.284 33.8485 51.1572 32.1175C53.0177 34.0702 54.3608 36.4523 55.0659 39.0495Z" fill="#F7D9A9"/>
<path d="M55.5555 38.949C56.0594 40.687 56.2334 42.5031 56.0683 44.3045C55.8849 46.104 55.4044 47.8612 54.6463 49.5054C53.9011 51.1415 52.945 52.6741 51.8022 54.0649C50.6683 55.4764 49.3633 56.7431 47.9168 57.8362C45.0235 60.0731 41.5761 61.491 37.9392 61.9397C36.0563 62.1549 34.1493 61.8889 32.3986 61.1669C30.6576 60.4172 29.215 59.1157 28.2957 57.4652L28.2413 57.3647C28.188 57.2618 28.1769 57.1424 28.2102 57.0315C28.2435 56.9205 28.3187 56.8267 28.42 56.7697C28.5025 56.7261 28.5969 56.7101 28.6893 56.724C28.7817 56.738 28.8671 56.7811 28.9329 56.847C29.71 57.2643 30.6658 57.6198 31.1553 57.4652C31.9039 57.2026 32.5471 56.7066 32.9892 56.051C33.2767 55.6955 33.5642 55.2782 33.9139 54.9073C34.2675 54.4527 34.7054 54.0697 35.2039 53.779C35.4949 53.6043 35.8166 53.4863 36.1519 53.4312C36.5048 53.389 36.8627 53.4233 37.201 53.5317C37.7413 53.7086 38.2501 53.9694 38.7085 54.3045C39.4856 54.8918 40.2626 55.4405 40.6589 55.3555C40.8005 55.3413 40.9379 55.2993 41.063 55.2318C41.2375 55.1616 41.4041 55.0735 41.5603 54.9691C41.84 54.8026 42.0643 54.558 42.2053 54.2658C42.5161 53.6476 42.6016 52.5657 42.9824 51.5533L43.1456 51.1746C43.2203 51.0203 43.3087 50.8729 43.4098 50.7342C43.5977 50.4831 43.82 50.2593 44.0703 50.0695C44.5062 49.761 44.9753 49.5018 45.469 49.2968C46.3937 48.8717 47.3107 48.5239 48.1266 48.1453C48.4965 48.0038 48.8404 47.8027 49.1446 47.5502C49.235 47.4671 49.3042 47.3638 49.3466 47.2488C49.3466 47.2488 49.3466 47.0866 49.3933 47.0093C49.4399 46.932 49.3933 46.8161 49.3933 46.7311C49.4109 46.3826 49.3273 46.0365 49.1524 45.7342C48.9228 45.3705 48.6629 45.0266 48.3753 44.7063C48.0108 44.2894 47.7025 43.827 47.4583 43.3308C47.2135 42.7906 47.0788 42.2074 47.062 41.6151C47.0248 40.9666 47.1875 40.3223 47.5283 39.7682C47.86 39.2718 48.288 38.8461 48.7871 38.5162C49.573 38.0683 50.3168 37.551 51.0096 36.9706C51.2608 36.6922 51.4479 36.3627 51.5579 36.005C51.668 35.6473 51.6983 35.2701 51.6468 34.8995C51.5037 34.0213 51.2093 33.1742 50.7764 32.3957V32.3493C50.7224 32.2539 50.7061 32.142 50.7305 32.0353C50.7549 31.9286 50.8184 31.8348 50.9086 31.7721C50.9988 31.7094 51.1093 31.6823 51.2184 31.6962C51.3276 31.71 51.4276 31.7638 51.4991 31.847C53.4171 33.8472 54.8102 36.2864 55.5555 38.949ZM54.5763 39.2195C53.9114 36.6822 52.6246 34.3483 50.8308 32.4266L51.5302 31.8779C52.2089 32.6781 52.6953 33.6216 52.9523 34.6368C53.0772 35.2071 53.0772 35.7975 52.9523 36.3678C52.824 36.9593 52.5578 37.5125 52.1752 37.983C51.4547 38.6928 50.6481 39.3107 49.774 39.8223C49.4661 39.9842 49.2085 40.2267 49.0291 40.5236C48.8497 40.8205 48.7553 41.1606 48.7561 41.507C48.7793 42.3213 49.1061 43.0981 49.673 43.6862C50.0157 44.0902 50.32 44.5248 50.5822 44.9845C50.8648 45.5383 50.991 46.1579 50.9474 46.7774C50.9396 46.925 50.924 47.072 50.9008 47.2179C50.8763 47.375 50.8399 47.53 50.792 47.6816C50.6804 48.0265 50.4825 48.3376 50.217 48.5858C49.7982 48.9662 49.324 49.2815 48.8104 49.5209C47.878 49.9691 46.961 50.2937 46.1295 50.6801C45.7385 50.8548 45.3684 51.0725 45.0261 51.3292C44.8923 51.4296 44.7744 51.5494 44.6764 51.6847C44.6353 51.7422 44.6013 51.8045 44.5754 51.8702L44.4588 52.1638C44.3244 52.5829 44.223 53.0119 44.1558 53.4467C44.0785 53.9751 43.943 54.4934 43.7517 54.9923C43.5049 55.587 43.089 56.0973 42.555 56.4606C42.3134 56.6318 42.0526 56.7744 41.7779 56.8856C41.4713 57.0382 41.1397 57.1351 40.7988 57.1716C40.1177 57.1987 39.4471 56.9973 38.895 56.5997C38.4759 56.3116 38.0761 55.9967 37.6983 55.6569C37.4043 55.3915 37.0748 55.1678 36.7192 54.9923C36.5928 54.9428 36.4564 54.9241 36.3212 54.9375C36.1861 54.9509 36.0561 54.9962 35.9421 55.0695C35.25 55.5941 34.6735 56.2543 34.2481 57.0093C33.9346 57.4525 33.5665 57.8549 33.1524 58.2071C32.6821 58.6104 32.1096 58.8776 31.4972 58.9799C30.8647 59.0573 30.2243 58.9213 29.6789 58.5935C29.2097 58.3283 28.785 57.992 28.42 57.5966L29.0572 56.9784C30.1625 58.1688 31.5295 59.0892 33.0514 59.6677C34.5763 60.1981 36.2 60.3881 37.8071 60.2241C41.1385 59.8108 44.3069 58.552 47.0076 56.5688C48.3701 55.58 49.607 54.4304 50.691 53.1453C51.7961 51.8743 52.7312 50.4664 53.4729 48.9567C54.2176 47.4549 54.7085 45.8413 54.926 44.1808C55.1171 42.5197 54.9985 40.8378 54.5763 39.2195Z" fill="#C49056"/>
<path d="M51.9265 37.0247C50.8542 38.8408 47.8469 39.0263 47.9013 41.5533C47.9712 44.3277 50.691 44.6445 50.1004 47.3416C49.6885 49.1963 44.7541 49.6136 43.8838 51.507C42.9435 53.5549 43.6973 55.255 41.1563 56.2056C39.2369 56.9243 37.7838 53.6476 35.9343 54.2736C34.5511 54.7373 33.9062 56.4838 32.7405 57.5116C32.3408 57.8793 31.8455 58.1283 31.3107 58.2303C30.5336 58.3926 29.5778 57.9212 28.6764 57.2411C27.964 56.2485 27.4254 55.1433 27.0834 53.9722C26.5136 52.0587 26.3003 50.0578 26.454 48.068C27.0834 50.4482 28.4977 52.898 31.6526 53.1067C42.0344 53.8022 47.6759 42.1407 49.3777 32.8671C49.502 32.1947 49.6031 31.5147 49.6963 30.8346C50.2125 31.2167 50.6983 31.6379 51.1494 32.0943C52.2762 33.8563 52.7813 35.541 51.9265 37.0247Z" fill="#F8B8C7"/>
<path d="M33.028 56.9707C34.2066 57.3504 35.4083 57.655 36.6259 57.8826C37.8248 58.0408 39.0439 57.9406 40.2004 57.5889C42.6054 56.8019 44.7871 55.4561 46.5647 53.6631C47.4725 52.7629 48.2994 51.7855 49.0358 50.7419C50.5767 48.6974 51.5929 46.3101 51.9964 43.7867C52.2222 42.5548 52.2511 41.295 52.0819 40.0541C52.0686 39.975 52.071 39.8939 52.0892 39.8157C52.1074 39.7375 52.1409 39.6636 52.1878 39.5983C52.2347 39.533 52.2941 39.4775 52.3626 39.4351C52.4311 39.3926 52.5074 39.364 52.587 39.3509C52.7423 39.3235 52.9023 39.3574 53.0329 39.4454C53.1635 39.5335 53.2544 39.6686 53.2864 39.8223C53.5484 41.2012 53.5825 42.6133 53.3874 44.0031C53.2271 45.3797 52.8903 46.7302 52.385 48.0217C51.8611 49.3043 51.191 50.523 50.3879 51.6538C49.6195 52.7966 48.7482 53.8675 47.7847 54.8532C45.8158 56.8573 43.3941 58.3649 40.7211 59.2504C39.3225 59.6847 37.8461 59.8139 36.3928 59.6291C34.9589 59.4717 33.5975 58.9204 32.4608 58.0371C32.3964 57.9854 32.343 57.9216 32.3035 57.8493C32.264 57.777 32.2392 57.6977 32.2305 57.6159C32.2218 57.534 32.2295 57.4513 32.253 57.3724C32.2765 57.2935 32.3154 57.22 32.3675 57.1561C32.4447 57.0629 32.5477 56.9942 32.6637 56.9585C32.7797 56.9228 32.9036 56.9216 33.0203 56.9552L33.028 56.9707Z" fill="#C58855"/>
<path d="M43.099 28.5008C37.8149 28.864 33.7197 32.7125 31.2486 36.0433C29.846 37.9159 28.7013 39.9665 27.845 42.1407C27.0842 44.0486 26.6179 46.06 26.4618 48.1067C27.0912 50.4869 28.5055 52.9366 31.6604 53.1453C42.0344 53.8022 47.6759 42.1407 49.3777 32.8671C49.5021 32.1947 49.6031 31.5147 49.6963 30.8346C47.8473 29.2993 45.5075 28.4716 43.099 28.5008ZM40.5735 44.9691C40.3676 45.909 39.8126 46.737 39.0193 47.2875C38.5864 47.5712 38.0637 47.6867 37.5506 47.6121C36.1752 47.4111 35.8877 45.8887 36.4627 44.3586C37.0378 42.8284 38.7163 41.2674 39.8974 41.4606C40.7833 41.6383 40.9931 43.3694 40.5735 44.9691Z" fill="#F491A4"/>
<path d="M51.1572 32.0943C48.6162 29.49 45.5234 28.323 43.099 28.4853C37.8149 28.8408 33.7274 32.6893 31.2408 36.0201C29.8482 37.8811 28.7065 39.9154 27.845 42.0711C26.254 45.8317 25.9803 50.0151 27.0679 53.949C27.4212 55.1287 27.9701 56.2414 28.692 57.2411C29.4058 57.9073 30.3556 58.2657 31.3341 58.238C31.8631 58.1281 32.352 57.8769 32.7483 57.5116C33.9217 56.4838 34.5589 54.7373 35.9499 54.2736C37.7993 53.6476 39.2602 56.9165 41.1718 56.2056C43.7129 55.255 42.9591 53.5626 43.8916 51.5147C44.7619 49.6059 49.6963 49.1963 50.1082 47.3416C50.6988 44.6291 47.979 44.3277 47.9091 41.5533C47.8547 39.0263 50.8697 38.8408 51.9343 37.0247C52.7813 35.5487 52.2762 33.8485 51.1572 32.0943ZM40.5735 44.9691C40.3676 45.909 39.8126 46.737 39.0193 47.2875C38.5861 47.5705 38.0636 47.6859 37.5507 47.6121C36.1752 47.4111 35.8955 45.8887 36.4628 44.3586C37.03 42.8284 38.7163 41.2674 39.8974 41.4606C40.7911 41.6383 40.9931 43.3694 40.5735 44.9691Z" stroke="#F27899" stroke-width="1.47" stroke-linecap="round" stroke-linejoin="round"/>
<path d="M39.9052 42.3493C39.9813 42.6 40.0206 42.8603 40.0217 43.1221C40.0161 43.3627 39.9954 43.6028 39.9596 43.8408C39.9936 43.8852 40.012 43.9395 40.012 43.9954C40.012 44.0512 39.9936 44.1055 39.9596 44.1499L39.8896 44.2504C39.8896 44.4513 39.7964 44.66 39.7342 44.8686C39.6134 45.2683 39.4299 45.6465 39.1902 45.9892C39.0917 46.1308 38.9798 46.2627 38.8561 46.3833C38.6929 46.5482 38.5006 46.6818 38.2888 46.7774C38.1458 46.8345 37.9889 46.8479 37.8381 46.8161C37.6736 46.7903 37.5258 46.7016 37.4263 46.5688C37.2923 46.3832 37.2044 46.1687 37.1699 45.9428C37.08 45.3919 37.1362 44.8272 37.333 44.3045C37.5345 43.7107 37.8633 43.1675 38.2966 42.7125C38.5106 42.4756 38.7595 42.2723 39.0348 42.1097C39.2209 41.9799 39.4449 41.9147 39.672 41.9243C39.672 41.9243 39.672 41.9629 39.742 41.9861C39.8224 42.0939 39.8781 42.2178 39.9052 42.3493Z" fill="#F8D2A7"/>
<path d="M39.9596 43.8795C39.9443 44.0229 39.9183 44.1649 39.8819 44.3045L39.9518 44.204C39.9908 44.1592 40.0129 44.1024 40.0143 44.0431C40.0158 43.9839 39.9964 43.926 39.9596 43.8795ZM39.9596 43.8795C39.9443 44.0229 39.9183 44.1649 39.8819 44.3045L39.9518 44.204C39.9908 44.1592 40.0129 44.1024 40.0143 44.0431C40.0158 43.9839 39.9964 43.926 39.9596 43.8795ZM39.9596 43.8795C39.9443 44.0229 39.9183 44.1649 39.8819 44.3045L39.9518 44.204C39.9908 44.1592 40.0129 44.1024 40.0143 44.0431C40.0158 43.9839 39.9964 43.926 39.9596 43.8795Z" fill="#F37E93"/>
<path d="M40.9231 41.3678C40.8231 41.2669 40.7109 41.1786 40.589 41.1051C40.4297 41.0106 40.2524 40.95 40.0684 40.9273C39.741 40.8851 39.4086 40.9061 39.0892 40.9892C38.9416 41.0278 38.8017 41.0819 38.6696 41.1283C38.541 41.1781 38.4163 41.2375 38.2966 41.306C37.886 41.5341 37.5072 41.8147 37.1699 42.1406C36.5742 42.6956 36.0914 43.3594 35.7478 44.0958C35.4148 44.7699 35.2597 45.5172 35.2971 46.2674C35.3207 46.686 35.4547 47.0912 35.6857 47.442C35.8289 47.6493 36.0078 47.8298 36.2141 47.9753C36.4702 48.1427 36.7544 48.2631 37.0533 48.3307C37.7232 48.4813 38.4236 48.4219 39.0582 48.1607C39.5784 47.9406 40.0409 47.6049 40.4103 47.1793C40.6891 46.8517 40.917 46.4844 41.0863 46.0896C41.2402 45.7447 41.3574 45.3847 41.436 45.0154C41.5755 44.3394 41.607 43.6456 41.5293 42.9598C41.4881 42.6036 41.3966 42.255 41.2573 41.9243C41.1761 41.7224 41.0633 41.5346 40.9231 41.3678ZM40.5735 44.9382C40.3935 45.7133 39.9945 46.4212 39.4234 46.9783C39.3026 47.0871 39.1726 47.1854 39.0348 47.272C38.8971 47.3579 38.7514 47.4304 38.5997 47.4884C38.2706 47.6135 37.9143 47.6507 37.5662 47.5966C36.1907 47.3956 35.911 45.8732 36.4783 44.3431C37.0455 42.813 38.7318 41.2519 39.9129 41.4374C40.791 41.6383 40.9931 43.3694 40.5735 44.9691V44.9382Z" fill="#F27899"/>
<path d="M39.913 41.4683C38.7318 41.2442 37.0766 42.7512 36.4783 44.374C35.8799 45.9969 36.1908 47.4652 37.5662 47.6275C37.9116 47.6916 38.2678 47.6649 38.5997 47.5502C38.7514 47.4922 38.8971 47.4197 39.0349 47.3339C39.1726 47.2472 39.3026 47.149 39.4234 47.0402C39.9945 46.4831 40.3935 45.7752 40.5735 45C40.9931 43.3694 40.791 41.6383 39.913 41.4683ZM39.913 42.3493C39.9891 42.6 40.0284 42.8603 40.0295 43.1221C40.0239 43.3627 40.0032 43.6028 39.9673 43.8408C40.0014 43.8852 40.0198 43.9395 40.0198 43.9954C40.0198 44.0512 40.0014 44.1055 39.9673 44.1499L39.8974 44.2504C39.8974 44.4513 39.8042 44.66 39.742 44.8686C39.6212 45.2683 39.4377 45.6465 39.198 45.9892C39.0995 46.1308 38.9876 46.2628 38.8639 46.3833C38.7007 46.5482 38.5084 46.6818 38.2966 46.7774C38.1536 46.8345 37.9967 46.8479 37.8459 46.8161C37.6814 46.7903 37.5336 46.7016 37.4341 46.5688C37.3001 46.3832 37.2122 46.1687 37.1776 45.9428C37.0878 45.3919 37.144 44.8272 37.3408 44.3045C37.5423 43.7107 37.8711 43.1675 38.3044 42.7125C38.5184 42.4756 38.7673 42.2723 39.0426 42.1097C39.2287 41.9799 39.4527 41.9147 39.6798 41.9243C39.6798 41.9243 39.6798 41.9629 39.7498 41.9861C39.8274 42.0946 39.8804 42.2185 39.9052 42.3493H39.913Z" fill="#F27899"/>
<path d="M39.9673 44.1886L39.8974 44.289C39.7555 44.5044 39.6283 44.729 39.5166 44.9614C39.396 45.2083 39.3023 45.4674 39.2369 45.7342C39.2369 45.8192 39.2369 45.9042 39.2369 45.9969C39.1383 46.1385 39.0264 46.2705 38.9027 46.391C38.7396 46.5559 38.5473 46.6895 38.3355 46.7852V46.6692C38.2879 46.3409 38.3117 46.0062 38.4054 45.6878C38.4891 45.3676 38.6117 45.0588 38.7706 44.7682C38.9357 44.4623 39.1254 44.1703 39.3379 43.8949C39.4052 43.8168 39.4943 43.7604 39.594 43.7328C39.6936 43.7053 39.7992 43.7079 39.8974 43.7403C39.9515 43.7582 39.9998 43.7903 40.0373 43.8331C40.0563 43.8609 40.0696 43.8923 40.0764 43.9253C40.0831 43.9583 40.0833 43.9923 40.0768 44.0253C40.0703 44.0584 40.0573 44.0898 40.0385 44.1178C40.0197 44.1458 39.9955 44.1699 39.9673 44.1886Z" fill="#C58855"/>
<path d="M45.0105 36.0742L46.4248 34.5286C46.4408 34.5118 46.4601 34.4984 46.4815 34.4892C46.5028 34.48 46.5259 34.4753 46.5492 34.4753C46.5724 34.4753 46.5955 34.48 46.6169 34.4892C46.6382 34.4984 46.6575 34.5118 46.6735 34.5286C46.7014 34.5609 46.7167 34.602 46.7167 34.6445C46.7167 34.6871 46.7014 34.7282 46.6735 34.7604L45.4846 36.4683C45.4705 36.5179 45.4445 36.5634 45.4088 36.6008C45.3731 36.6381 45.3288 36.6662 45.2797 36.6827C45.2305 36.6992 45.1781 36.7035 45.127 36.6952C45.0758 36.687 45.0274 36.6665 44.9861 36.6354C44.9447 36.6044 44.9115 36.5638 44.8895 36.5172C44.8675 36.4705 44.8572 36.4192 44.8596 36.3677C44.862 36.3162 44.877 36.2661 44.9033 36.2217C44.9296 36.1773 44.9664 36.1399 45.0105 36.1128V36.0742Z" fill="#F2F2F3"/>
<path d="M38.6152 34.5208L39.4622 32.8052C39.4713 32.783 39.485 32.7629 39.5025 32.7463C39.5199 32.7297 39.5407 32.7169 39.5635 32.7089C39.5862 32.7009 39.6105 32.6977 39.6345 32.6997C39.6586 32.7016 39.682 32.7086 39.7031 32.7202C39.7415 32.74 39.7717 32.7724 39.7887 32.8118C39.8057 32.8513 39.8084 32.8954 39.7964 32.9366L39.2136 34.7604C39.2008 34.8005 39.1803 34.8377 39.153 34.8699C39.1258 34.9021 39.0925 34.9286 39.055 34.948C39.0175 34.9673 38.9765 34.9792 38.9344 34.9828C38.8922 34.9864 38.8498 34.9818 38.8095 34.9691C38.7692 34.9564 38.7318 34.9359 38.6994 34.9089C38.6671 34.8818 38.6404 34.8487 38.6209 34.8114C38.6014 34.774 38.5895 34.7333 38.5859 34.6914C38.5822 34.6495 38.5869 34.6073 38.5997 34.5672C38.6012 34.5508 38.6066 34.5349 38.6152 34.5208Z" fill="#F2F2F3"/>
<path d="M32.2665 38.2767L33.673 39.6368C33.7058 39.6712 33.7241 39.7169 33.7241 39.7643C33.7241 39.8117 33.7058 39.8574 33.673 39.8918C33.64 39.9182 33.5988 39.9325 33.5565 39.9325C33.5141 39.9325 33.473 39.9182 33.4399 39.8918L31.8858 38.7481C31.8119 38.6966 31.7614 38.6182 31.7454 38.5299C31.7294 38.4416 31.7491 38.3506 31.8003 38.2767C31.8526 38.2105 31.9282 38.1664 32.0118 38.1535C32.0955 38.1406 32.181 38.1598 32.251 38.2071L32.2665 38.2767Z" fill="#F2F2F3"/>
<path d="M31.979 47.0015L33.9217 45.8346C33.9411 45.8209 33.963 45.8112 33.9862 45.8059C34.0094 45.8006 34.0334 45.7999 34.0568 45.8039C34.0803 45.8078 34.1027 45.8163 34.1229 45.8289C34.143 45.8414 34.1605 45.8578 34.1743 45.8771C34.188 45.8964 34.1979 45.9182 34.2032 45.9413C34.2085 45.9643 34.2092 45.9882 34.2052 46.0115C34.2012 46.0348 34.1927 46.0571 34.18 46.0772C34.1674 46.0972 34.1509 46.1146 34.1315 46.1283L32.352 47.5502C32.284 47.6035 32.1975 47.6278 32.1115 47.6176C32.0255 47.6075 31.9471 47.5638 31.8935 47.4961C31.84 47.4285 31.8156 47.3425 31.8258 47.257C31.836 47.1714 31.8799 47.0935 31.9479 47.0402L31.979 47.0015Z" fill="#F2F2F3"/>
<path d="M32.3054 43.6862L30.4248 42.6893C30.3839 42.6665 30.3536 42.6286 30.3405 42.5838C30.3274 42.539 30.3326 42.4908 30.3549 42.4498C30.3735 42.4108 30.4064 42.3803 30.4468 42.3645C30.4872 42.3487 30.5321 42.3488 30.5725 42.3648L32.5696 43.1376C32.6391 43.1746 32.6927 43.2355 32.7205 43.3089C32.7484 43.3822 32.7486 43.4631 32.7211 43.5366C32.6936 43.6101 32.6403 43.6713 32.5711 43.7087C32.5018 43.7462 32.4212 43.7574 32.3442 43.7403L32.3054 43.6862Z" fill="#F2F2F3"/>
<path d="M28.692 50.0541L28.3423 48.323C28.3332 48.2769 28.3427 48.2291 28.3689 48.19C28.3952 48.1509 28.4359 48.1237 28.4822 48.1144C28.5253 48.106 28.57 48.1131 28.6083 48.1343C28.6467 48.1555 28.6763 48.1895 28.692 48.2303L29.2904 49.8686C29.3051 49.9082 29.3118 49.9502 29.31 49.9924C29.3082 50.0345 29.2979 50.0759 29.2798 50.114C29.2617 50.1522 29.2361 50.1863 29.2046 50.2145C29.173 50.2427 29.1362 50.2644 29.0961 50.2782C29.0564 50.294 29.0139 50.3015 28.9712 50.3003C28.9285 50.299 28.8865 50.289 28.8478 50.2708C28.8092 50.2527 28.7747 50.2269 28.7466 50.1949C28.7184 50.1629 28.6972 50.1255 28.6842 50.085C28.6857 50.0744 28.6883 50.0641 28.692 50.0541Z" fill="#F2F2F3"/>
<path d="M31.2175 51.7852L33.4555 52.2798C33.5009 52.2925 33.5399 52.3219 33.5644 52.3621C33.5889 52.4022 33.5972 52.4502 33.5876 52.4962C33.5799 52.54 33.5553 52.5792 33.519 52.6052C33.4827 52.6312 33.4375 52.642 33.3933 52.6353L31.1165 52.4189C31.0741 52.4161 31.0329 52.4047 30.9952 52.3854C30.9574 52.3661 30.9241 52.3393 30.8972 52.3068C30.8702 52.2742 30.8503 52.2365 30.8385 52.196C30.8268 52.1554 30.8235 52.1129 30.8289 52.0711C30.8369 51.9863 30.8779 51.908 30.9433 51.8531C31.0088 51.7982 31.0933 51.771 31.1786 51.7775L31.2175 51.7852Z" fill="#F2F2F3"/>
<path d="M41.1252 50.2473L42.3374 51.7156C42.3702 51.7501 42.3885 51.7957 42.3885 51.8431C42.3885 51.8906 42.3702 51.9362 42.3374 51.9706C42.3037 51.999 42.2611 52.0145 42.217 52.0145C42.1729 52.0145 42.1302 51.999 42.0965 51.9706L40.6822 50.6955C40.6453 50.6687 40.6145 50.6345 40.5917 50.5951C40.5689 50.5556 40.5547 50.5119 40.55 50.4667C40.5453 50.4214 40.5503 50.3757 40.5645 50.3325C40.5787 50.2893 40.6018 50.2496 40.6325 50.2158C40.6631 50.1821 40.7006 50.1551 40.7423 50.1367C40.7841 50.1182 40.8294 50.1087 40.8751 50.1088C40.9208 50.1088 40.966 50.1185 41.0077 50.137C41.0495 50.1555 41.0868 50.1826 41.1174 50.2164L41.1252 50.2473Z" fill="#F2F2F3"/>
<path d="M36.4627 51.4142L37.8382 49.8686C37.8736 49.8377 37.9192 49.8206 37.9664 49.8206C38.0136 49.8206 38.0591 49.8377 38.0946 49.8686C38.1231 49.9021 38.1387 49.9446 38.1387 49.9884C38.1387 50.0323 38.1231 50.0747 38.0946 50.1082L36.9445 51.8238C36.8957 51.8938 36.8217 51.9424 36.7378 51.9597C36.6539 51.9769 36.5666 51.9615 36.4938 51.9166C36.4544 51.8885 36.4219 51.852 36.3984 51.8098C36.375 51.7677 36.3613 51.7208 36.3583 51.6727C36.3553 51.6246 36.3631 51.5765 36.3812 51.5318C36.3993 51.4871 36.4271 51.4469 36.4627 51.4142Z" fill="#F2F2F3"/>
<path d="M45.3292 46.051L45.1893 44.2813C45.1871 44.2334 45.2037 44.1864 45.2356 44.1504C45.2675 44.1144 45.3121 44.0921 45.3602 44.0881C45.4029 44.0853 45.4452 44.0977 45.4794 44.1233C45.5136 44.1488 45.5375 44.1857 45.5467 44.2272L45.9664 45.9583C45.9831 46.0411 45.9675 46.1271 45.9228 46.1989C45.878 46.2706 45.8075 46.3228 45.7255 46.3447C45.642 46.3633 45.5546 46.3486 45.482 46.3039C45.4093 46.2591 45.3572 46.1877 45.3369 46.1051C45.33 46.088 45.3274 46.0694 45.3292 46.051Z" fill="#F2F2F3"/>
<path d="M43.5808 42.3957L44.995 40.8501C45.011 40.8332 45.0303 40.8198 45.0517 40.8107C45.073 40.8015 45.0961 40.7968 45.1194 40.7968C45.1426 40.7968 45.1657 40.8015 45.1871 40.8107C45.2084 40.8198 45.2277 40.8332 45.2437 40.8501C45.2716 40.8823 45.2869 40.9235 45.2869 40.966C45.2869 41.0085 45.2716 41.0497 45.2437 41.0819L44.0548 42.7898C44.0308 42.8243 44.0002 42.8538 43.9648 42.8765C43.9293 42.8993 43.8898 42.9149 43.8483 42.9224C43.8068 42.9299 43.7642 42.9293 43.723 42.9204C43.6817 42.9116 43.6426 42.8948 43.608 42.8709C43.5733 42.8471 43.5436 42.8167 43.5207 42.7814C43.4979 42.7462 43.4822 42.7068 43.4746 42.6656C43.467 42.6243 43.4677 42.582 43.4766 42.541C43.4855 42.5 43.5024 42.4611 43.5264 42.4266L43.5808 42.3957Z" fill="#F2F2F3"/>
<path d="M38.1879 37.9753L40.5812 37.8284C40.6286 37.8233 40.6761 37.8371 40.7133 37.8668C40.7505 37.8966 40.7742 37.9397 40.7794 37.9869C40.7845 38.034 40.7707 38.0813 40.7408 38.1182C40.7109 38.1552 40.6675 38.1788 40.6201 38.1839L38.2889 38.609C38.2447 38.6228 38.1982 38.6271 38.1523 38.6216C38.1063 38.6161 38.0621 38.601 38.0225 38.5772C37.9829 38.5535 37.9488 38.5216 37.9225 38.4838C37.8962 38.4459 37.8783 38.403 37.87 38.3577C37.8617 38.3125 37.8631 38.266 37.8742 38.2213C37.8854 38.1767 37.9059 38.1349 37.9345 38.0987C37.9631 38.0626 37.999 38.0329 38.04 38.0116C38.0811 37.9903 38.1261 37.9779 38.1723 37.9753H38.1879Z" fill="#F2F2F3"/>
<path d="M8.96207 17.1484H11.0369C11.3098 17.1103 11.5879 17.1347 11.8499 17.2197C12.1119 17.3047 12.351 17.4481 12.5488 17.6389C12.7467 17.8297 12.8982 18.0629 12.9917 18.3207C13.0851 18.5786 13.1182 18.8543 13.0883 19.1267V19.2736C13.0883 20.3864 12.6299 20.8192 12.1947 20.9815C12.5648 21.1268 12.875 21.3919 13.0752 21.734C13.2754 22.0761 13.3539 22.4752 13.2981 22.8671V23.1298C13.3395 23.4373 13.3104 23.7501 13.213 24.0448C13.1156 24.3395 12.9524 24.6084 12.7356 24.8314C12.5188 25.0545 12.254 25.2258 11.9612 25.3326C11.6684 25.4394 11.355 25.479 11.0446 25.4482H8.96207V17.1484ZM10.8193 20.541C11.6818 20.541 11.946 20.2087 11.946 19.3895V19.2427C11.946 18.4699 11.6041 18.1376 10.8737 18.1376H10.1821V20.541H10.8193ZM10.1821 24.4668H10.9591C11.7751 24.4668 12.1325 24.0495 12.1325 23.1067V22.8671C12.1325 21.9629 11.7751 21.5147 10.8426 21.5147H10.2054L10.1821 24.4668Z" fill="#F491A4"/>
<path d="M17.6964 17.1484V23.1607C17.6964 23.864 17.9062 24.5131 18.6988 24.5131C19.4914 24.5131 19.7012 23.9335 19.7012 23.1607V17.1484H20.9212V23.1607C20.9212 24.575 20.3384 25.5719 18.6755 25.5719C17.0126 25.5719 16.4686 24.6522 16.4686 23.1762V17.1484H17.6964Z" fill="#F491A4"/>
<path d="M25.335 18.238H23.7265V17.1484H28.1636V18.238H26.555V25.4405H25.335V18.238Z" fill="#F491A4"/>
<path d="M31.0232 17.1484H32.2432V24.3663H34.7998L34.6754 25.425H31.0232V17.1484Z" fill="#F491A4"/>
<path d="M41.2029 21.6151H38.8717V24.3663H41.5137L41.3583 25.4405H37.6517V17.1484H41.3195V18.238H38.8561V20.5564H41.1874L41.2029 21.6151Z" fill="#F491A4"/>
<path d="M45.741 21.7465V25.4405H44.521V17.1484H46.6191C46.9089 17.1076 47.2043 17.1342 47.4822 17.2259C47.76 17.3177 48.0126 17.4722 48.2204 17.6773C48.4281 17.8824 48.5853 18.1325 48.6796 18.4081C48.7739 18.6837 48.8027 18.9773 48.7638 19.2659V19.405C48.7638 20.6183 48.1966 21.0819 47.7769 21.2442C48.3831 21.4992 48.6628 22.017 48.6628 23.1608V23.354C48.647 24.0508 48.6782 24.7478 48.7561 25.4405H47.5749C47.4713 24.7579 47.4323 24.067 47.4583 23.3771V23.2071C47.4583 22.1175 47.2563 21.7465 46.3471 21.7465H45.741ZM45.741 20.7496H46.386C47.233 20.7496 47.536 20.3478 47.536 19.4591V19.32C47.536 18.5935 47.2641 18.153 46.4637 18.153H45.741V20.7496Z" fill="#F491A4"/>
<path d="M60.3656 23.0448V23.1684C60.3656 23.8485 60.1713 25.5718 58.1975 25.5718C56.2237 25.5718 55.9595 23.9103 55.9595 22.1484V20.3632C55.9595 18.323 56.6356 17.0324 58.2908 17.0324C60.1635 17.0324 60.3656 18.5394 60.3811 19.3508V19.5054H59.1222V19.3045C59.1222 18.8872 59.0445 18.0834 58.2441 18.0834C57.4437 18.0834 57.2184 19.0263 57.2184 20.3323V22.1793C57.2184 23.4003 57.3738 24.4977 58.2208 24.4977C59.0678 24.4977 59.1145 23.7249 59.1378 23.1994V23.0293L60.3656 23.0448Z" fill="#F491A4"/>
<path d="M67.9032 20.4018V22.102C67.9032 24.4204 67.1805 25.5718 65.5253 25.5718C63.8702 25.5718 63.2407 24.4513 63.2407 22.1097V20.3941C63.2407 18.0757 64.1033 17.0324 65.5719 17.0324C67.0406 17.0324 67.9032 18.1375 67.9032 20.4018ZM64.4918 20.3477V22.1484C64.4918 23.694 64.8182 24.5131 65.5719 24.5131C66.3257 24.5131 66.6521 23.7403 66.6521 22.1406V20.3555C66.6521 18.8099 66.349 18.0912 65.5642 18.0912C64.7793 18.0912 64.4918 18.8717 64.4918 20.3477Z" fill="#F491A4"/>
<path d="M72.348 17.1484V23.1607C72.348 23.864 72.5578 24.5131 73.3582 24.5131C74.1586 24.5131 74.3529 23.9335 74.3529 23.1607V17.1484H75.5729V23.1607C75.5729 24.575 74.9978 25.5719 73.3271 25.5719C71.6564 25.5719 71.128 24.6522 71.128 23.1762V17.1484H72.348Z" fill="#F491A4"/>
<path d="M79.0464 25.4405V17.1484H80.4685C81.7351 20.5719 82.3723 22.8439 82.4811 23.3308C82.4189 22.2798 82.4111 21.0819 82.4111 19.7218V17.1484H83.5224V25.4405H82.1625C80.8725 21.8856 80.212 19.4668 80.1032 19.0572C80.1654 20.0696 80.1654 21.3138 80.1654 22.8053V25.4405H79.0464Z" fill="#F491A4"/>
<path d="M88.0061 18.238H86.3976V17.1484H90.8579V18.238H89.2261V25.4405H88.0061V18.238Z" fill="#F491A4"/>
<path d="M94.8366 25.4405V22.4343C94.8356 22.3473 94.8198 22.2611 94.7899 22.1793L92.9172 17.1484H94.2771C94.72 18.5162 95.2795 20.2396 95.4738 21.0587C95.7147 20.1314 96.2508 18.4621 96.686 17.1484H97.9759L96.0876 22.2257C96.0572 22.3125 96.044 22.4043 96.0488 22.4961V25.4405H94.8366Z" fill="#F491A4"/>
</svg>
